<svg width="34" height="36" viewBox="0 0 34 36" fill="none" xmlns="http://www.w3.org/2000/svg">
<path fill-rule="evenodd" clip-rule="evenodd" d="M4 0C1.79086 0 0 1.79086 0 4V26.7616C0 28.9708 1.79086 30.7616 4 30.7616H10.2001L15.0143 35.2281C15.824 35.9794 17.1369 35.9794 17.9466 35.2281L22.7608 30.7616H29.1563C31.3654 30.7616 33.1563 28.9708 33.1563 26.7616V4C33.1563 1.79086 31.3654 0 29.1563 0H4Z" fill="#00B828"/>
<path d="M16.7659 19.2362C16.7422 19.2807 16.6948 19.3251 16.6711 19.3696C15.7469 20.7694 14.3488 21.5249 12.6427 21.7916C11.4342 21.9916 10.273 21.836 9.1593 21.3694C8.32992 21.0139 7.856 20.3917 7.50055 19.6584C7.28728 19.214 7.59534 18.7696 8.06927 18.7474C8.28253 18.7474 8.44841 18.814 8.5432 19.014C9.13561 20.1473 10.1546 20.5917 11.4342 20.6139C12.9507 20.6361 14.254 20.1473 15.2256 19.0362C15.9128 18.2585 16.1261 17.3253 16.1498 16.3254C16.1498 16.0365 16.1498 15.7476 16.2208 15.481C16.2919 15.1699 16.5763 14.9921 16.8606 15.0588C17.1213 15.1032 17.2635 15.281 17.3109 15.5254C17.382 15.8587 17.4294 16.2143 17.4531 16.5476C17.5241 17.8586 18.0218 18.9696 18.9933 19.9473C20.1545 21.125 22.0028 21.125 23.235 20.2806C23.8274 19.8806 24.2776 19.3696 24.6568 18.814C24.799 18.6141 24.9411 18.4363 25.107 18.2585C25.2255 18.103 25.4151 18.0363 25.6283 18.0363C26.0075 18.0363 26.2681 18.3474 26.1734 18.6807C26.1497 18.7918 26.0786 18.9029 26.0075 19.014C25.5809 19.7029 25.0833 20.3695 24.4672 20.925C22.7611 22.436 19.7516 22.6582 17.9033 20.6583C17.5005 20.2139 17.1687 19.7251 16.7659 19.2362Z" fill="white"/>
<path d="M16.1937 10.3213C16.4279 9.99836 16.6387 9.67546 16.8729 9.39561C17.3413 8.87897 17.9268 8.53454 18.6762 8.49149C19.2851 8.44844 19.7769 8.66371 20.1516 9.09424C20.7137 9.7831 20.8308 10.5581 20.7137 11.3761C20.5263 12.7753 19.8472 13.9808 18.8401 15.0141C18.5591 15.3155 18.1844 15.5523 17.8331 15.7891C17.3179 16.1335 16.7324 16.112 16.1703 15.8967C16.1001 15.8752 16.0298 15.8321 15.9595 15.7891C14.4139 14.9065 13.1492 13.7871 12.3998 12.2156C12.1422 11.6774 12.0017 11.1178 12.0719 10.5365C12.0953 10.3643 12.1188 10.1706 12.189 10.0199C12.6106 8.92203 13.7581 8.51302 14.8822 9.05119C15.2335 9.2234 15.538 9.43867 15.7722 9.74004C15.8893 9.95531 16.0298 10.1275 16.1937 10.3213Z" fill="white"/>
</svg>
