<svg width="298" height="75" viewBox="0 0 298 75" fill="none" xmlns="http://www.w3.org/2000/svg">
<path d="M123.736 18.784C127.576 18.784 130.528 19.96 132.592 22.312C134.656 24.616 135.688 28.408 135.688 33.688V50.32C135.688 52 135.184 53.272 134.176 54.136C133.168 55 131.872 55.432 130.288 55.432C128.752 55.432 127.456 55 126.4 54.136C125.344 53.272 124.816 52 124.816 50.32V33.544C124.816 31.24 124.408 29.632 123.592 28.72C122.824 27.76 121.624 27.28 119.992 27.28C117.976 27.28 116.368 27.976 115.168 29.368C113.968 30.76 113.368 32.704 113.368 35.2V50.32C113.368 52 112.864 53.272 111.856 54.136C110.848 55 109.552 55.432 107.968 55.432C106.432 55.432 105.136 55 104.08 54.136C103.024 53.272 102.496 52 102.496 50.32V33.544C102.496 31.24 102.088 29.632 101.272 28.72C100.504 27.76 99.304 27.28 97.672 27.28C95.656 27.28 94.048 27.976 92.848 29.368C91.648 30.76 91.048 32.704 91.048 35.2V50.32C91.048 52 90.52 53.272 89.464 54.136C88.456 55 87.184 55.432 85.648 55.432C84.112 55.432 82.816 55 81.76 54.136C80.704 53.272 80.176 52 80.176 50.32V23.896C80.176 22.312 80.704 21.088 81.76 20.224C82.864 19.36 84.184 18.928 85.72 18.928C87.16 18.928 88.36 19.36 89.32 20.224C90.28 21.04 90.76 22.192 90.76 23.68V24.4C91.912 22.576 93.4 21.184 95.224 20.224C97.096 19.264 99.208 18.784 101.56 18.784C104.104 18.784 106.24 19.312 107.968 20.368C109.744 21.376 111.112 23.032 112.072 25.336C113.176 23.32 114.736 21.736 116.752 20.584C118.816 19.384 121.144 18.784 123.736 18.784ZM159.791 18.784C164.975 18.784 168.815 20.056 171.311 22.6C173.807 25.096 175.055 28.936 175.055 34.12V50.392C175.055 51.976 174.599 53.224 173.687 54.136C172.775 55 171.503 55.432 169.871 55.432C168.335 55.432 167.087 54.976 166.127 54.064C165.215 53.104 164.759 51.88 164.759 50.392V49.888C164.039 51.664 162.839 53.056 161.159 54.064C159.479 55.072 157.511 55.576 155.255 55.576C152.855 55.576 150.671 55.096 148.703 54.136C146.783 53.176 145.247 51.832 144.095 50.104C142.991 48.376 142.439 46.456 142.439 44.344C142.439 41.752 143.087 39.712 144.383 38.224C145.727 36.736 147.863 35.656 150.791 34.984C153.719 34.312 157.727 33.976 162.815 33.976H164.687V32.68C164.687 30.664 164.231 29.2 163.319 28.288C162.455 27.376 160.991 26.92 158.927 26.92C156.863 26.92 153.887 27.64 149.999 29.08C148.895 29.608 147.959 29.872 147.191 29.872C146.135 29.872 145.295 29.512 144.671 28.792C144.047 28.024 143.735 27.04 143.735 25.84C143.735 24.88 143.951 24.088 144.383 23.464C144.815 22.84 145.511 22.264 146.471 21.736C148.151 20.824 150.191 20.104 152.591 19.576C155.039 19.048 157.439 18.784 159.791 18.784ZM157.631 48.088C159.743 48.088 161.447 47.392 162.743 46C164.039 44.56 164.687 42.712 164.687 40.456V39.232H163.463C159.575 39.232 156.839 39.544 155.255 40.168C153.719 40.792 152.951 41.92 152.951 43.552C152.951 44.896 153.383 46 154.247 46.864C155.159 47.68 156.287 48.088 157.631 48.088ZM205.072 18.784C208.096 18.784 210.784 19.576 213.136 21.16C215.536 22.696 217.384 24.88 218.68 27.712C220.024 30.496 220.696 33.712 220.696 37.36C220.696 41.008 220.024 44.224 218.68 47.008C217.384 49.744 215.56 51.856 213.208 53.344C210.856 54.832 208.144 55.576 205.072 55.576C202.672 55.576 200.488 55.096 198.52 54.136C196.6 53.128 195.112 51.736 194.056 49.96V63.568C194.056 65.008 193.576 66.16 192.616 67.024C191.656 67.888 190.384 68.32 188.8 68.32C187.12 68.32 185.752 67.864 184.696 66.952C183.688 66.04 183.184 64.84 183.184 63.352V24.04C183.184 22.504 183.664 21.28 184.624 20.368C185.632 19.408 186.952 18.928 188.584 18.928C190.216 18.928 191.512 19.408 192.472 20.368C193.432 21.28 193.912 22.504 193.912 24.04V24.616C194.968 22.792 196.48 21.376 198.448 20.368C200.416 19.312 202.624 18.784 205.072 18.784ZM201.904 47.296C204.448 47.296 206.416 46.456 207.808 44.776C209.2 43.048 209.896 40.576 209.896 37.36C209.896 34.096 209.2 31.576 207.808 29.8C206.416 27.976 204.448 27.064 201.904 27.064C199.36 27.064 197.392 27.952 196 29.728C194.608 31.456 193.912 33.952 193.912 37.216C193.912 40.432 194.608 42.928 196 44.704C197.392 46.432 199.36 47.296 201.904 47.296ZM255.708 44.488C256.668 44.488 257.436 44.872 258.012 45.64C258.636 46.408 258.948 47.392 258.948 48.592C258.948 49.408 258.708 50.176 258.228 50.896C257.748 51.568 257.076 52.144 256.212 52.624C254.58 53.488 252.684 54.208 250.524 54.784C248.364 55.312 246.372 55.576 244.548 55.576C240.708 55.576 237.348 54.832 234.468 53.344C231.636 51.856 229.452 49.744 227.916 47.008C226.38 44.224 225.612 40.96 225.612 37.216C225.612 33.616 226.356 30.424 227.844 27.64C229.332 24.856 231.396 22.696 234.036 21.16C236.676 19.576 239.676 18.784 243.036 18.784C246.252 18.784 249.06 19.504 251.46 20.944C253.908 22.336 255.804 24.352 257.148 26.992C258.492 29.584 259.164 32.632 259.164 36.136C259.164 37.192 258.9 38.008 258.372 38.584C257.892 39.112 257.196 39.376 256.284 39.376H236.124C236.46 42.208 237.324 44.272 238.716 45.568C240.108 46.816 242.1 47.44 244.692 47.44C246.084 47.44 247.332 47.272 248.436 46.936C249.54 46.6 250.764 46.144 252.108 45.568C252.78 45.28 253.428 45.04 254.052 44.848C254.676 44.608 255.228 44.488 255.708 44.488ZM243.324 26.272C241.26 26.272 239.604 26.944 238.356 28.288C237.108 29.584 236.364 31.48 236.124 33.976H250.02C249.876 31.432 249.228 29.512 248.076 28.216C246.972 26.92 245.388 26.272 243.324 26.272ZM284.684 47.512C286.124 47.608 287.18 47.968 287.852 48.592C288.524 49.216 288.86 50.128 288.86 51.328C288.86 52.72 288.308 53.776 287.204 54.496C286.1 55.216 284.516 55.504 282.452 55.36L280.436 55.216C272.036 54.544 267.836 50.152 267.836 42.04V27.784H264.956C263.372 27.784 262.172 27.448 261.356 26.776C260.54 26.056 260.132 25.048 260.132 23.752C260.132 22.408 260.54 21.4 261.356 20.728C262.172 20.008 263.372 19.648 264.956 19.648H267.836V14.032C267.836 12.448 268.316 11.2 269.276 10.288C270.284 9.376 271.628 8.92 273.308 8.92C274.988 8.92 276.308 9.376 277.268 10.288C278.228 11.2 278.708 12.448 278.708 14.032V19.648H283.748C287.012 19.648 288.644 21.016 288.644 23.752C288.644 25.048 288.236 26.056 287.42 26.776C286.604 27.448 285.38 27.784 283.748 27.784H278.708V42.832C278.708 44.272 279.044 45.376 279.716 46.144C280.388 46.864 281.372 47.272 282.668 47.368L284.684 47.512Z" fill="white"/>
<path fill-rule="evenodd" clip-rule="evenodd" d="M4 0.6698C1.79086 0.6698 0 2.46066 0 4.6698V59.1612C0 61.3703 1.79087 63.1612 4.00001 63.1612H20.7214L32.0134 73.6377C32.8232 74.389 34.136 74.389 34.9458 73.6377L46.2379 63.1612H63.356C65.5652 63.1612 67.356 61.3703 67.356 59.1612V4.6698C67.356 2.46066 65.5652 0.6698 63.356 0.6698H4Z" fill="#0C99BA"/>
<path d="M34.0592 39.7475C34.0111 39.8378 33.9148 39.9281 33.8667 40.0184C31.9893 42.8622 29.1491 44.397 25.6831 44.9387C23.2281 45.3449 20.8693 45.0289 18.6067 44.081C16.9219 43.3588 15.9591 42.0948 15.237 40.6052C14.8038 39.7024 15.4296 38.7996 16.3924 38.7545C16.8256 38.7545 17.1626 38.8899 17.3551 39.2961C18.5586 41.5983 20.6286 42.5011 23.228 42.5462C26.3089 42.5914 28.9565 41.5983 30.9302 39.3413C32.3263 37.7614 32.7595 35.8655 32.8076 33.8342C32.8076 33.2474 32.8076 32.6606 32.9521 32.1189C33.0965 31.4869 33.6741 31.1258 34.2518 31.2612C34.7813 31.3515 35.0702 31.7126 35.1664 32.2091C35.3109 32.8862 35.4071 33.6085 35.4553 34.2856C35.5997 36.9489 36.6106 39.2059 38.5843 41.192C40.9431 43.5844 44.6979 43.5844 47.2011 41.8691C48.4046 41.0566 49.3192 40.0184 50.0894 38.8899C50.3783 38.4836 50.6671 38.1225 51.0041 37.7614C51.2448 37.4454 51.6299 37.31 52.0631 37.31C52.8333 37.31 53.3629 37.9419 53.1703 38.619C53.1222 38.8447 52.9777 39.0704 52.8333 39.2961C51.9668 40.6955 50.9559 42.0497 49.7043 43.1782C46.2383 46.2477 40.1247 46.6991 36.3699 42.6365C35.5515 41.7337 34.8776 40.7406 34.0592 39.7475Z" fill="white"/>
<path d="M32.897 21.6369C33.3728 20.981 33.801 20.325 34.2767 19.7565C35.2282 18.707 36.4176 18.0073 37.9401 17.9198C39.177 17.8323 40.1761 18.2696 40.9373 19.1443C42.0792 20.5437 42.317 22.118 42.0792 23.7798C41.6985 26.6223 40.3188 29.0712 38.2731 31.1703C37.7022 31.7825 36.941 32.2636 36.2273 32.7446C35.1807 33.4443 33.9913 33.4006 32.8494 32.9633C32.7067 32.9195 32.564 32.8321 32.4213 32.7446C29.2813 30.9516 26.7122 28.6776 25.1897 25.4853C24.6664 24.392 24.3809 23.255 24.5237 22.0742C24.5713 21.7244 24.6188 21.3308 24.7616 21.0247C25.6179 18.7944 27.9491 17.9635 30.2328 19.0568C30.9464 19.4067 31.5649 19.844 32.0407 20.4562C32.2785 20.8935 32.564 21.2434 32.897 21.6369Z" fill="white"/>
</svg>
