<svg width="68" height="74" viewBox="0 0 68 74" fill="none" xmlns="http://www.w3.org/2000/svg">
<path fill-rule="evenodd" clip-rule="evenodd" d="M4 0C1.79086 0 0 1.79086 0 4V58.4914C0 60.7005 1.79087 62.4914 4.00001 62.4914H20.7214L32.0134 72.9679C32.8232 73.7192 34.136 73.7192 34.9458 72.9679L46.2379 62.4914H63.356C65.5652 62.4914 67.356 60.7005 67.356 58.4914V4C67.356 1.79086 65.5652 0 63.356 0H4Z" fill="#0C99BA"/>
<path d="M34.0592 39.0777C34.0111 39.168 33.9148 39.2583 33.8667 39.3486C31.9893 42.1924 29.1491 43.7272 25.6831 44.2689C23.2281 44.6751 20.8693 44.3591 18.6067 43.4112C16.9219 42.689 15.9591 41.425 15.237 39.9354C14.8038 39.0326 15.4296 38.1298 16.3924 38.0847C16.8256 38.0847 17.1626 38.2201 17.3551 38.6263C18.5586 40.9285 20.6286 41.8313 23.228 41.8764C26.3089 41.9216 28.9565 40.9285 30.9302 38.6715C32.3263 37.0916 32.7595 35.1957 32.8076 33.1644C32.8076 32.5776 32.8076 31.9908 32.9521 31.4491C33.0965 30.8171 33.6741 30.456 34.2518 30.5914C34.7813 30.6817 35.0702 31.0428 35.1664 31.5393C35.3109 32.2164 35.4071 32.9387 35.4553 33.6158C35.5997 36.2791 36.6106 38.5361 38.5843 40.5222C40.9431 42.9146 44.6979 42.9146 47.2011 41.1993C48.4046 40.3868 49.3192 39.3486 50.0894 38.2201C50.3783 37.8138 50.6671 37.4527 51.0041 37.0916C51.2448 36.7756 51.6299 36.6402 52.0631 36.6402C52.8333 36.6402 53.3629 37.2721 53.1703 37.9492C53.1222 38.1749 52.9777 38.4006 52.8333 38.6263C51.9668 40.0257 50.9559 41.3799 49.7043 42.5084C46.2383 45.5779 40.1247 46.0293 36.3699 41.9667C35.5515 41.0639 34.8776 40.0708 34.0592 39.0777Z" fill="white"/>
<path d="M32.897 20.9672C33.3728 20.3112 33.801 19.6553 34.2767 19.0868C35.2282 18.0372 36.4176 17.3375 37.9401 17.2501C39.177 17.1626 40.1761 17.5999 40.9373 18.4745C42.0792 19.8739 42.317 21.4482 42.0792 23.11C41.6985 25.9525 40.3188 28.4015 38.2731 30.5005C37.7022 31.1128 36.941 31.5938 36.2273 32.0749C35.1807 32.7746 33.9913 32.7308 32.8494 32.2935C32.7067 32.2498 32.564 32.1623 32.4213 32.0749C29.2813 30.2819 26.7122 28.0079 25.1897 24.8155C24.6664 23.7222 24.3809 22.5852 24.5237 21.4045C24.5713 21.0547 24.6188 20.6611 24.7616 20.355C25.6179 18.1247 27.9491 17.2938 30.2328 18.3871C30.9464 18.7369 31.5649 19.1742 32.0407 19.7865C32.2785 20.2238 32.564 20.5736 32.897 20.9672Z" fill="white"/>
</svg>
