<svg width="690" height="727" viewBox="0 0 690 727" fill="none" xmlns="http://www.w3.org/2000/svg">
<ellipse cx="403" cy="198" rx="87" ry="27" fill="#666363" fill-opacity="0.2"/>
<path d="M404.316 40.4C405.247 36.3964 406.959 32.3928 409.289 28.5506C409.303 28.5585 409.317 28.5664 409.331 28.5742L409.816 27.7L409.447 27.4659C407.905 26.3596 407.195 24.1435 406.916 22.1L404.316 40.4ZM404.316 40.4C398.066 66.9833 415.501 78.6092 425.282 85.1308C429.74 88.1033 432.607 90.0154 430.916 91.8C427.434 95.4761 420.605 95.2216 411.857 94.8955C402.52 94.5475 390.995 94.118 379.016 98.3L404.316 40.4ZM503.871 28.4617L502.751 28.8743L503.353 29.9047C507.061 36.2464 508.811 43.2611 508.617 49.9685C508.298 59.6308 505.526 66.7946 501.543 72.2124C497.553 77.6412 492.304 81.3735 486.951 84.0962C481.768 86.732 476.53 88.4022 472.27 89.7604C472.124 89.8069 471.979 89.8531 471.836 89.8989C469.687 90.5847 467.768 91.2056 466.293 91.8402C465.553 92.1584 464.889 92.4949 464.346 92.8657C463.812 93.2304 463.329 93.6727 463.034 94.2289C462.528 95.1658 462.253 96.6792 462.084 98.4508C461.91 100.277 461.838 102.548 461.829 105.117C461.813 109.47 461.977 114.747 462.149 120.269C462.18 121.262 462.211 122.263 462.242 123.268C462.442 129.875 462.61 136.666 462.467 142.587C462.323 148.544 461.865 153.492 460.868 156.484L460.864 156.496L460.86 156.509C460.528 157.598 460.257 157.98 459.784 158.223C459.179 158.535 458.092 158.7 455.816 158.7C453.936 158.7 453.145 158.407 452.71 157.885C452.216 157.293 451.916 156.119 451.916 153.6C451.916 152.734 451.982 151.786 452.049 150.802L452.059 150.658C452.129 149.642 452.198 148.588 452.179 147.642C452.159 146.718 452.055 145.761 451.693 145C451.504 144.603 451.229 144.227 450.833 143.947C450.432 143.665 449.967 143.521 449.463 143.501C447.648 143.401 446.256 143.431 445.198 143.652C444.106 143.881 443.272 144.334 442.726 145.139C442.219 145.886 442.057 146.808 441.967 147.72C441.923 148.155 441.893 148.631 441.862 149.128L441.854 149.244C441.82 149.789 441.782 150.372 441.721 151.004L441.721 151.007C441.57 152.618 441.448 153.92 441.279 154.988C441.109 156.062 440.904 156.809 440.629 157.34C440.372 157.835 440.055 158.141 439.603 158.346C439.115 158.567 438.403 158.7 437.316 158.7C435.8 158.7 434.765 158.39 434.029 157.903C433.297 157.42 432.761 156.696 432.358 155.681C431.95 154.652 431.697 153.367 431.518 151.822C431.364 150.503 431.271 149.05 431.168 147.459C431.15 147.19 431.133 146.918 431.115 146.641C431.101 146.37 431.113 146.221 431.126 146.054C431.135 145.947 431.144 145.832 431.148 145.673C431.151 145.533 431.154 145.222 430.996 144.915C430.8 144.533 430.468 144.345 430.177 144.262C429.928 144.191 429.662 144.181 429.437 144.183C429.196 144.185 428.904 144.203 428.566 144.228C428.314 144.247 428.034 144.27 427.716 144.297C427.145 144.344 426.449 144.402 425.559 144.465C420.099 144.849 407.992 145.35 381.371 143.901L381.359 143.901L381.347 143.9C380.342 143.87 379.47 144.1 378.723 144.565C377.987 145.022 377.431 145.67 376.989 146.389C376.191 147.689 375.67 149.402 375.172 151.039C375.135 151.161 375.098 151.283 375.061 151.404C374.743 152.414 374.63 153.427 374.535 154.288L374.521 154.411C374.416 155.346 374.323 156.058 374.08 156.641C373.862 157.166 373.521 157.591 372.845 157.912C372.123 158.256 370.974 158.5 369.116 158.5C368.285 158.5 367.577 158.137 366.933 157.357C366.266 156.55 365.701 155.325 365.253 153.727C364.357 150.536 364.01 146.182 363.979 141.643C363.917 132.581 365.111 123.12 365.399 121.584L365.401 121.573L365.403 121.562C366.695 113.712 369.06 106.927 372.089 103.234L372.52 102.709L372.191 102.116C369.538 97.3257 367.762 92.3385 366.13 87.5595C365.999 87.1753 365.868 86.7921 365.738 86.4102C364.263 82.0761 362.845 77.9107 360.933 74.3856C358.835 70.5197 356.099 67.3353 351.944 65.4503C347.807 63.5734 342.395 63.0447 335.059 64.2124L335.052 64.2136C332.935 64.5664 330.754 64.9227 328.702 64.8753C326.661 64.8281 324.862 64.3819 323.45 63.226L323.446 63.2228C317.654 58.5345 317.597 50.0271 322.83 44.7008L322.833 44.6976C328.036 39.354 337.241 37.7799 346.559 40.9226C355.832 44.05 365.088 51.8298 370.184 64.9618C372.994 72.2597 374.281 79.2493 375.203 85.1299C375.341 86.0063 375.471 86.8619 375.597 87.6917C375.891 89.6303 376.164 91.4281 376.462 93.0213C376.885 95.2883 377.38 97.2633 378.122 98.7472L378.515 99.5341L379.346 99.2441C390.75 95.2624 401.755 95.5243 410.93 95.8618C411.237 95.8731 411.542 95.8845 411.845 95.8958C416.044 96.0526 419.889 96.1961 423.13 95.878C426.601 95.5373 429.593 94.6512 431.642 92.4877C432.113 91.9912 432.412 91.3926 432.408 90.7028C432.404 90.042 432.122 89.4538 431.76 88.9551C431.058 87.9869 429.792 87.0073 428.331 85.9865C427.559 85.4469 426.707 84.8785 425.796 84.2711C423.143 82.5021 419.994 80.402 416.882 77.7178C412.726 74.1323 408.731 69.5748 406.321 63.583C403.916 57.6042 403.057 50.1225 405.29 40.6289L405.29 40.6265C406.261 36.4534 408.111 32.2569 410.661 28.2355L411.228 27.3405L410.302 26.8258C409.648 26.4627 409.12 25.813 408.711 24.9302C408.304 24.0496 408.049 23.0042 407.907 21.9649L407.907 21.9603C406.933 15.0541 407.987 7.57571 412.046 2.29382C412.338 3.12804 412.8 3.89275 413.361 4.56518C414.415 5.82984 415.855 6.82139 417.339 7.42611L417.345 7.42848C418.991 8.08684 420.726 8.41537 422.338 8.72046C422.791 8.80628 423.234 8.89025 423.663 8.97918C425.672 9.39568 427.488 9.9334 429.102 11.1893L429.596 11.5733L430.157 11.2975C446.97 3.03876 467.931 3.33416 484.546 12.1826L485.116 12.4859L485.627 12.092C486.655 11.2994 488.195 10.7453 490.068 10.2477C490.846 10.0413 491.652 9.85121 492.48 9.65623C492.636 9.61938 492.793 9.58234 492.951 9.54499C493.936 9.31196 494.942 9.06777 495.909 8.78481C497.822 8.2258 499.714 7.48179 501.083 6.24978C501.935 5.48417 502.563 4.54978 502.889 3.41665C505.455 7.10932 506.868 12.399 507.118 17.3008C507.264 20.1722 507.004 22.8258 506.39 24.8541C505.76 26.9366 504.841 28.1041 503.871 28.4617Z" fill="#D4AB7A" stroke="black" stroke-width="2"/>
<path d="M379.438 144.348C380.11 142.728 380.913 141.482 381.775 140.526C383.206 138.939 384.845 138.101 386.439 137.694C389.675 136.868 392.745 137.815 393.38 138.042L395.622 138.842L394.624 136.681C394.35 136.087 394.004 135.53 393.598 135.024C398.905 135.136 404.012 135.751 407.849 138.846C408.349 139.334 409.003 139.737 409.72 139.881L409.817 139.9H409.916C410.385 139.9 410.788 139.782 411.11 139.659C411.269 139.599 411.419 139.533 411.546 139.476L411.582 139.46C411.699 139.408 411.794 139.366 411.888 139.328L411.912 139.319L411.935 139.308C413.073 138.783 414.415 138.596 415.947 138.391C418.203 138.097 420.609 137.986 422.76 138.383C424.899 138.779 426.705 139.66 427.907 141.287C428.552 142.193 428.912 143.262 429.006 144.388C428.694 144.403 428.318 144.433 427.878 144.469C427.788 144.476 427.693 144.484 427.595 144.492C426.254 144.603 424.197 144.774 421.026 144.901C414.216 145.174 402.249 145.25 381.271 144.101L381.266 144.101C380.594 144.068 379.986 144.155 379.438 144.348Z" fill="#E8C8A8" stroke="black" stroke-width="2"/>
<path d="M435.106 9.26573C446.379 4.96501 459.102 4.23883 470.911 7.09655C470.832 7.26573 470.769 7.42368 470.717 7.55574C470.707 7.58102 470.697 7.60534 470.688 7.62861L470.677 7.6559L470.668 7.68378C470.307 8.76548 470.25 10.2444 471.116 11.4C471.985 12.5588 473.622 13.0409 475.002 12.2742L475.025 12.2616L475.046 12.248C475.762 11.801 476.137 11.0155 476.211 10.2895C476.216 10.243 476.22 10.1959 476.222 10.1483C476.831 10.3083 477.371 10.5444 477.792 10.8809C478.53 11.4719 478.859 12.4883 478.613 13.1651C478.276 13.7249 477.584 14.1666 476.82 14.3194C476.006 14.4823 475.054 14.4077 474.112 14.2194L474.081 14.2131L474.049 14.2088C473.314 14.1109 472.553 13.9882 471.776 13.8628L471.769 13.8616C470.998 13.7374 470.212 13.6106 469.449 13.5088L469.438 13.5073L469.427 13.5061C469.334 13.4958 469.23 13.4829 469.119 13.4692C468.77 13.4258 468.349 13.3735 467.956 13.3629C467.42 13.3484 466.788 13.4004 466.184 13.6981C464.389 14.5352 463.727 16.6124 463.619 18.1288C463.511 19.6361 463.709 21.4146 464.708 22.7882L464.724 22.8112L464.742 22.8332C465.861 24.2006 467.981 24.9786 469.72 23.9638C470.688 23.3992 471.136 22.3332 471.154 21.3807C471.16 21.0502 471.113 20.7016 471.005 20.3655C471.011 20.367 471.017 20.3686 471.024 20.3701C471.509 20.4914 471.937 20.7834 472.184 21.1547C472.785 22.0556 472.868 23.2859 472.408 24.2809L472.398 24.3045L472.388 24.3286C472.074 25.1142 471.52 25.7608 470.769 26.2633C470.19 26.6341 469.526 26.8759 468.751 27.1219C468.629 27.1608 468.502 27.2002 468.372 27.2405C467.717 27.4439 466.984 27.6716 466.295 27.9929C462.034 29.961 460.134 34.7315 459.025 38.8586C458.973 38.0363 458.902 37.2133 458.81 36.3896L458.809 36.3809C458.51 33.8874 458.095 31.1652 456.548 28.8453C455.193 26.8127 453.088 25.5117 450.988 24.6715L450.96 24.6606L450.933 24.6513C450.614 24.5451 450.311 24.4497 450.02 24.3582C449.126 24.077 448.347 23.832 447.595 23.4221L447.563 23.4047L447.53 23.3896C446.61 22.9712 445.854 22.252 445.565 21.3838C445.476 21.1161 445.458 20.8398 445.497 20.5804C445.498 20.5812 445.499 20.582 445.499 20.5828C446.012 21.1507 446.83 21.5818 447.711 21.4955C449.337 21.3456 450.393 20.047 450.772 18.796C451.641 16.0505 450.021 13.0305 447.761 11.5616C445.543 10.1196 442.935 9.7058 440.479 9.60174C439.674 9.53525 438.862 9.50053 438.082 9.46717C437.689 9.45038 437.304 9.43393 436.933 9.41394C436.309 9.38041 435.702 9.33647 435.106 9.26573Z" fill="#E8C8A8" stroke="black" stroke-width="2"/>
<path d="M413.774 9.37016L413.774 9.37019L413.782 9.37219C415.849 9.87013 417.722 10.3782 419.201 10.9189C419.94 11.1891 420.558 11.4594 421.043 11.7292C421.537 12.0049 421.833 12.2479 421.987 12.439C422.117 12.6014 422.105 12.6688 422.101 12.6901C422.101 12.6908 422.1 12.6915 422.1 12.6922C422.089 12.7548 422.019 12.9589 421.645 13.2955C420.885 13.979 419.293 14.8368 416.489 15.855C416.441 15.8706 416.378 15.8887 416.288 15.9144L416.268 15.92C416.181 15.9445 416.075 15.9745 415.968 16.008C415.759 16.0733 415.454 16.1785 415.183 16.3541C414.458 16.7975 413.966 17.5774 413.651 18.1952C412.98 19.1981 412.261 20.1611 411.431 20.9904C411.535 17.4821 411.738 13.9154 412.205 10.4486C412.224 10.3382 412.24 10.2232 412.254 10.126C412.26 10.0853 412.265 10.0477 412.27 10.0149C412.289 9.88485 412.305 9.79319 412.324 9.71754C412.357 9.58507 412.388 9.54225 412.423 9.50711C412.638 9.29264 413.071 9.19437 413.774 9.37016ZM410.816 21.4832C410.816 21.4832 410.818 21.4827 410.82 21.482C410.818 21.4829 410.816 21.4833 410.816 21.4832Z" fill="#EFC0C9" stroke="black" stroke-width="2"/>
<path d="M501.516 12.5V12.5263L501.518 12.5526C501.707 16.1546 501.624 19.6712 501.353 23.283C500.56 22.3516 499.901 21.3337 499.311 20.1528C499.279 20.0891 499.245 20.0146 499.207 19.932C498.982 19.4438 498.627 18.6718 497.871 18.168C497.626 18.0043 497.363 17.8967 497.175 17.8215C497.137 17.8063 497.101 17.792 497.067 17.7784C496.909 17.7159 496.789 17.6681 496.664 17.6056L496.65 17.5987L496.636 17.5923C493.997 16.3722 492.537 15.4148 491.875 14.7001C491.551 14.3502 491.515 14.1612 491.512 14.1181C491.512 14.118 491.512 14.1178 491.512 14.1175C491.511 14.1101 491.5 14.0444 491.652 13.8909C491.827 13.7138 492.149 13.4989 492.667 13.2677C493.174 13.0414 493.813 12.8245 494.57 12.6156C496.08 12.1988 497.974 11.8379 500.06 11.4899C500.419 11.4459 500.727 11.4356 500.97 11.4748C501.182 11.509 501.28 11.5697 501.332 11.6223C501.431 11.7744 501.516 12.0974 501.516 12.5Z" fill="#EFC0C9" stroke="black" stroke-width="2"/>
<path d="M477.736 52.0234C477.123 52.024 476.507 52.0694 475.888 52.162C476.471 52.036 477.095 51.9964 477.736 52.0234Z" fill="#070708" stroke="black" stroke-width="2"/>
<path d="M432.851 49.785C434.343 49.5237 435.83 49.5311 437.046 50.0428C435.38 49.7169 433.707 49.6758 432.074 49.9446C432.328 49.885 432.588 49.8312 432.851 49.785ZM428.988 50.8434C428.988 50.8434 428.988 50.8443 428.989 50.8459C428.988 50.8443 428.988 50.8434 428.988 50.8434Z" fill="#070708" stroke="black" stroke-width="2"/>
<mask id="path-9-inside-1" fill="white">
<path d="M491.916 63.2C501.116 63.4 510.316 63.6 519.516 63.9C520.616 63.9 520.616 62.1 519.516 62.1C510.316 61.9 501.116 61.7 491.916 61.4C490.816 61.4 490.816 63.2 491.916 63.2Z"/>
</mask>
<path d="M491.916 63.2C501.116 63.4 510.316 63.6 519.516 63.9C520.616 63.9 520.616 62.1 519.516 62.1C510.316 61.9 501.116 61.7 491.916 61.4C490.816 61.4 490.816 63.2 491.916 63.2Z" fill="#070708"/>
<path d="M491.916 63.2L491.96 61.2005L491.938 61.2H491.916V63.2ZM519.516 63.9L519.451 65.8989L519.484 65.9H519.516V63.9ZM519.516 62.1L519.473 64.0995L519.495 64.1H519.516V62.1ZM491.916 61.4L491.982 59.4011L491.949 59.4H491.916V61.4ZM491.873 65.1995C501.075 65.3996 510.264 65.5993 519.451 65.8989L519.582 61.9011C510.369 61.6006 501.158 61.4004 491.96 61.2005L491.873 65.1995ZM519.516 65.9C520.398 65.9 521.172 65.5129 521.686 64.8821C522.16 64.2999 522.341 63.6066 522.341 63C522.341 62.3934 522.16 61.7 521.686 61.1179C521.172 60.487 520.398 60.1 519.516 60.1V64.1C519.185 64.1 518.824 63.9379 518.585 63.6446C518.385 63.3999 518.341 63.1566 518.341 63C518.341 62.8434 518.385 62.6 518.585 62.3554C518.824 62.062 519.185 61.9 519.516 61.9V65.9ZM519.56 60.1005C510.358 59.9004 501.169 59.7006 491.982 59.4011L491.851 63.3989C501.064 63.6993 510.275 63.8996 519.473 64.0995L519.56 60.1005ZM491.916 59.4C491.035 59.4 490.261 59.787 489.747 60.4179C489.273 61 489.091 61.6934 489.091 62.3C489.091 62.9066 489.273 63.5999 489.747 64.1821C490.261 64.8129 491.035 65.2 491.916 65.2V61.2C492.248 61.2 492.609 61.362 492.848 61.6554C493.047 61.9 493.091 62.1434 493.091 62.3C493.091 62.4566 493.047 62.6999 492.848 62.9446C492.609 63.2379 492.248 63.4 491.916 63.4V59.4Z" fill="black" mask="url(#path-9-inside-1)"/>
<mask id="path-11-inside-2" fill="white">
<path d="M492.416 67.6C499.616 69 506.816 70.5 514.116 71.9C515.216 72.1 515.716 70.4 514.616 70.2C507.416 68.8 500.216 67.3 492.916 65.9C491.816 65.6 491.316 67.3 492.416 67.6Z"/>
</mask>
<path d="M492.416 67.6C499.616 69 506.816 70.5 514.116 71.9C515.216 72.1 515.716 70.4 514.616 70.2C507.416 68.8 500.216 67.3 492.916 65.9C491.816 65.6 491.316 67.3 492.416 67.6Z" fill="#070708"/>
<path d="M492.416 67.6L491.89 69.5295L491.962 69.5491L492.035 69.5632L492.416 67.6ZM514.116 71.9L513.74 73.8642L513.749 73.866L513.759 73.8677L514.116 71.9ZM514.616 70.2L514.235 72.1632L514.247 72.1656L514.259 72.1677L514.616 70.2ZM492.916 65.9L492.39 67.8295L492.464 67.8497L492.54 67.8642L492.916 65.9ZM492.035 69.5632C499.163 70.9493 506.473 72.4706 513.74 73.8642L514.493 69.9358C507.16 68.5294 500.07 67.0507 492.798 65.6368L492.035 69.5632ZM513.759 73.8677C515.576 74.1981 516.778 72.893 517.11 71.7643C517.282 71.1789 517.309 70.4215 516.952 69.6959C516.56 68.898 515.823 68.3866 514.974 68.2323L514.259 72.1677C513.96 72.1134 513.573 71.8895 513.362 71.4604C513.187 71.1035 513.225 70.7961 513.273 70.6357C513.322 70.4668 513.43 70.28 513.635 70.1306C513.874 69.9567 514.188 69.8802 514.474 69.9323L513.759 73.8677ZM514.998 68.2368C507.87 66.8507 500.56 65.3294 493.293 63.9358L492.54 67.8642C499.873 69.2706 506.963 70.7493 514.235 72.1632L514.998 68.2368ZM493.443 63.9705C492.621 63.7463 491.788 63.8843 491.117 64.3284C490.488 64.7438 490.1 65.3568 489.923 65.9607C489.745 66.5632 489.736 67.3006 490.059 68.0019C490.406 68.7564 491.066 69.3049 491.89 69.5295L492.943 65.6705C493.216 65.7451 493.526 65.9686 493.692 66.3293C493.834 66.6369 493.812 66.9118 493.76 67.0893C493.707 67.2682 493.582 67.4937 493.322 67.6653C493.019 67.8657 492.662 67.9037 492.39 67.8295L493.443 63.9705Z" fill="black" mask="url(#path-11-inside-2)"/>
<path d="M491.743 70.2192L491.747 70.2139L491.743 70.2133C491.73 70.2103 491.724 70.2073 491.724 70.2073C491.724 70.2073 491.73 70.2102 491.743 70.2192Z" fill="#070708" stroke="black" stroke-width="2"/>
<path d="M389.916 62.2V61.4L417.495 60.5003L417.491 60.5003C408.31 60.6999 399.122 60.8997 389.934 61.1989C389.928 61.1991 389.922 61.1993 389.916 61.1995C389.905 61.1998 389.895 61.2002 389.884 61.2005L389.916 62.2Z" fill="#070708" stroke="black" stroke-width="2"/>
<mask id="path-15-inside-3" fill="white">
<path d="M417.016 65.8C409.816 67.2 402.616 68.7 395.316 70.1C394.216 70.3 393.716 68.6 394.816 68.4C402.016 67 409.216 65.5 416.516 64.1C417.616 63.8 418.116 65.6 417.016 65.8Z"/>
</mask>
<path d="M417.016 65.8C409.816 67.2 402.616 68.7 395.316 70.1C394.216 70.3 393.716 68.6 394.816 68.4C402.016 67 409.216 65.5 416.516 64.1C417.616 63.8 418.116 65.6 417.016 65.8Z" fill="#070708"/>
<path d="M417.016 65.8L416.659 63.8323L416.647 63.8345L416.635 63.8368L417.016 65.8ZM395.316 70.1L395.674 72.0678L395.684 72.066L395.693 72.0642L395.316 70.1ZM394.816 68.4L395.174 70.3678L395.186 70.3656L395.198 70.3632L394.816 68.4ZM416.516 64.1L416.893 66.0642L416.968 66.0498L417.043 66.0295L416.516 64.1ZM416.635 63.8368C409.363 65.2507 402.273 66.7294 394.94 68.1358L395.693 72.0642C402.96 70.6706 410.27 69.1493 417.398 67.7632L416.635 63.8368ZM394.959 68.1323C395.245 68.0802 395.559 68.1567 395.797 68.3306C396.002 68.48 396.11 68.6669 396.16 68.8357C396.207 68.9961 396.246 69.3035 396.071 69.6604C395.86 70.0896 395.473 70.3134 395.174 70.3678L394.459 66.4323C393.61 66.5866 392.873 67.098 392.481 67.8959C392.124 68.6215 392.15 69.3789 392.323 69.9643C392.655 71.093 393.857 72.3981 395.674 72.0678L394.959 68.1323ZM395.198 70.3632C402.47 68.9493 409.56 67.4706 416.893 66.0642L416.14 62.1358C408.873 63.5294 401.563 65.0507 394.435 66.4368L395.198 70.3632ZM417.043 66.0295C416.732 66.1141 416.357 66.0536 416.063 65.8468C415.818 65.6751 415.712 65.4646 415.668 65.312C415.626 65.1652 415.591 64.8869 415.748 64.5548C415.941 64.145 416.318 63.8942 416.659 63.8323L417.374 67.7678C418.265 67.6058 418.991 67.055 419.366 66.2608C419.704 65.5444 419.681 64.7973 419.514 64.2131C419.346 63.623 418.977 63.0062 418.364 62.5751C417.701 62.1089 416.85 61.9359 415.99 62.1705L417.043 66.0295Z" fill="black" mask="url(#path-15-inside-3)"/>
<mask id="path-17-inside-4" fill="white">
<path d="M418.016 69.1C413.516 72.3 408.716 74.9 403.616 77C402.516 77.4 402.116 75.7 403.116 75.3C408.116 73.3 412.716 70.7 417.116 67.6C418.116 66.9 419.016 68.4 418.016 69.1Z"/>
</mask>
<path d="M418.016 69.1C413.516 72.3 408.716 74.9 403.616 77C402.516 77.4 402.116 75.7 403.116 75.3C408.116 73.3 412.716 70.7 417.116 67.6C418.116 66.9 419.016 68.4 418.016 69.1Z" fill="#070708"/>
<path d="M418.016 69.1L416.869 67.4615L416.863 67.4658L416.857 67.4701L418.016 69.1ZM403.616 77L404.3 78.8796L404.339 78.8653L404.378 78.8494L403.616 77ZM403.116 75.3L402.374 73.443L403.116 75.3ZM417.116 67.6L415.969 65.9615L415.964 65.965L417.116 67.6ZM416.857 67.4701C412.49 70.5761 407.824 73.1044 402.855 75.1507L404.378 78.8494C409.608 76.6956 414.543 74.0239 419.175 70.7299L416.857 67.4701ZM402.933 75.1204C403.164 75.0364 403.582 75.0087 403.987 75.2592C404.332 75.4732 404.467 75.7661 404.512 75.9382C404.559 76.1157 404.56 76.3269 404.468 76.55C404.363 76.8067 404.145 77.0425 403.859 77.157L402.374 73.443C400.694 74.1148 400.347 75.8335 400.645 76.9618C400.804 77.5589 401.182 78.2269 401.88 78.6596C402.638 79.1288 403.519 79.1636 404.3 78.8796L402.933 75.1204ZM403.859 77.157C409.024 75.0909 413.761 72.4109 418.268 69.235L415.964 65.965C411.672 68.9891 407.208 71.5091 402.374 73.443L403.859 77.157ZM418.263 69.2385C418.096 69.3559 417.748 69.4859 417.328 69.3792C416.953 69.2841 416.72 69.051 416.601 68.854C416.482 68.6551 416.42 68.3995 416.469 68.1212C416.525 67.8083 416.703 67.5783 416.869 67.4615L419.163 70.7385C420.622 69.7174 420.732 67.9646 420.031 66.796C419.688 66.224 419.105 65.7034 418.311 65.5021C417.472 65.2891 416.637 65.4941 415.969 65.9615L418.263 69.2385Z" fill="black" mask="url(#path-17-inside-4)"/>
<path d="M454.987 62.5588L455.688 63.599L456.546 62.6839C457.839 61.3044 459.499 60.6588 461.311 60.9791C461.67 61.0709 462.071 61.4172 462.166 61.7559C462.202 61.8861 462.205 62.0467 462.086 62.2644C461.956 62.504 461.655 62.8507 461.002 63.2425L460.986 63.2521L460.97 63.2624C460 63.8949 459.184 64.4775 458.498 64.9671C458.356 65.0687 458.219 65.1663 458.088 65.2595C457.299 65.8192 456.751 66.1858 456.303 66.3896L455.716 66.6561V66.782L455.364 66.6056C455.296 66.5718 455.224 66.5396 455.172 66.5165C455.168 66.5145 455.163 66.5125 455.159 66.5106C455.099 66.4837 455.055 66.4635 455.014 66.4431C454.945 66.4088 454.922 66.3904 454.92 66.3896L454.868 66.3374L454.805 66.2912C454.411 66.0048 453.985 65.7128 453.545 65.4114C452.656 64.8022 451.711 64.1546 450.862 63.4366C450.244 62.9131 449.745 62.4054 449.418 61.9247C449.092 61.4462 448.991 61.0762 449.012 60.7899C449.046 60.4872 449.535 59.827 450.821 59.8374C451.978 59.8469 453.591 60.4877 454.987 62.5588Z" fill="#070708" stroke="black" stroke-width="2"/>
<ellipse cx="512.5" cy="671.5" rx="129.5" ry="55.5" fill="#666363" fill-opacity="0.2"/>
<mask id="path-21-inside-5" fill="white">
<path d="M686.486 321.08C678.377 292.882 657.38 270.524 637.188 249.234C633.368 245.204 629.343 240.567 628.007 235.392C627.606 233.83 627.45 232.219 627.617 230.559C627.622 230.476 627.622 230.392 627.633 230.311C628.29 224.829 632.434 220.435 636.771 217.014C637.304 216.591 637.848 216.178 638.398 215.772C639.548 214.912 640.72 214.088 641.908 213.277C646.054 210.454 650.365 207.849 654.449 204.958C656.459 203.538 658.417 202.048 660.268 200.427C667.491 194.112 673.256 184.901 671.895 175.402C670.629 166.55 663.245 159.44 654.826 156.42C646.407 153.4 637.129 153.869 628.32 155.415C626.402 155.752 624.486 156.143 622.584 156.593C614.335 158.543 606.345 161.633 599.456 166.528C593.799 170.55 588.958 175.9 585.838 182.062C584.284 185.127 583.152 188.39 582.576 191.798C581.35 199.015 582.619 206.335 585.264 213.215C586.751 217.084 588.669 220.812 590.835 224.306C592.993 227.781 595.383 231.071 597.934 234.228C602.22 239.535 606.981 244.463 611.948 249.228C626.173 262.871 642.081 275.196 653.317 291.346C676.243 324.286 675.319 371.945 651.138 403.972C641.968 416.116 629.987 425.947 617.016 433.905C607.096 439.988 596.205 445.088 584.82 446.933C584.825 445.195 584.798 443.458 584.742 441.723C584.642 438.765 584.451 435.812 584.173 432.865C583.632 427.081 582.751 421.329 581.536 415.642C580.722 411.83 579.763 408.05 578.659 404.311C574.933 391.706 569.572 379.583 562.699 368.397C582.042 357.347 601.382 346.296 620.725 335.245C621.768 334.652 622.924 334.036 624.101 334.267C625.734 334.59 626.588 336.331 627.433 337.764C629.88 341.899 634.473 344.93 639.274 344.69C644.074 344.451 648.632 340.41 648.689 335.603C648.751 330.253 642.485 326.231 637.547 327.664C640.895 325.87 643.713 323.006 644.812 319.402C646.122 315.121 644.486 309.868 640.518 307.796C637.17 306.045 632.509 307.411 630.658 310.53C632.105 306.656 633.296 302.602 632.512 298.591C631.598 293.927 626.827 289.695 622.315 291.193C620.152 291.909 618.527 293.76 617.474 295.783C615.254 300.064 615.227 305.161 615.954 309.93C616.191 311.473 616.482 313.135 615.779 314.531C615.259 315.557 614.281 316.258 613.338 316.915C593.974 330.455 574.327 343.594 554.44 356.358C549.968 350.504 545.048 344.987 539.682 339.908C558.793 334.502 574.098 318.515 578.176 299.078C582.252 279.641 575.399 259.638 560.07 247.006C563.454 230.737 565.286 214.144 565.528 197.528C553.731 210.039 541.15 222.87 529.35 235.381C526.441 234.403 523.494 233.536 520.517 232.784C516.812 231.847 513.06 231.103 509.285 230.513C506.761 230.12 504.226 229.794 501.683 229.557C496.12 229.04 490.519 228.897 484.934 229.128C482.752 229.22 480.575 229.366 478.401 229.573C474.123 229.977 469.872 230.589 465.661 231.437C462.668 232.043 459.694 232.757 456.752 233.587C444.729 221.623 433.072 209.018 421.049 197.051C420.066 215.548 419.115 232.844 416.504 251.182C399.804 264.377 392.387 288.213 398.654 308.553C404.917 328.895 422.921 344.38 444.153 345.889C437.83 350.399 431.995 355.569 426.717 361.258C410.281 349.863 393.845 338.467 377.406 327.072C376.167 326.212 374.882 325.304 374.16 323.982C373.093 322.026 373.476 319.644 373.459 317.416C373.427 312.828 371.31 308.095 367.376 305.735C363.44 303.375 357.705 304.027 354.992 307.726C351.15 312.96 354.674 320.234 358.198 325.687C352.934 322.74 345.42 321.107 341.565 325.746C338.971 328.866 339.442 333.817 341.985 336.977C344.526 340.14 348.68 341.673 352.732 341.886C348.796 341.35 344.539 342.538 341.832 345.447C339.127 348.354 338.297 353.028 340.299 356.463C343.101 361.277 350.232 361.983 355.127 359.321C360.022 356.66 363.12 351.638 365.695 346.697C381.848 356.94 398.198 366.87 414.721 376.506C406.744 388.551 400.946 402.04 397.794 416.127C397.051 419.457 396.455 422.822 396.013 426.208C395.938 426.787 395.855 427.364 395.79 427.943C395.017 434.697 394.877 441.513 395.318 448.291C395.62 452.943 396.199 457.577 397.051 462.165C398.942 472.37 402.167 482.329 406.612 491.705C407.891 494.404 409.271 497.055 410.75 499.652C414.637 506.47 419.201 512.901 424.403 518.787C427.531 522.325 430.974 525.708 434.702 528.672C434.266 549.378 433.829 570.084 433.395 590.79C425.677 586.983 415.02 592.441 413.592 600.927C413.236 603.039 413.395 605.286 414.368 607.196C416.345 611.097 421.31 612.706 425.645 612.097C429.979 611.488 433.843 609.139 437.566 606.841C434.284 612.382 431.442 620.055 435.936 624.667C439.907 628.74 447.396 626.884 450.699 622.256C454.002 617.627 454.069 611.434 453.188 605.817C457.28 608.559 463.401 607.46 466.432 603.576C469.463 599.691 469.129 593.643 465.831 589.984C462.534 586.326 456.712 585.326 452.291 587.495C452.003 570.889 451.712 554.283 451.426 537.678C453.161 538.179 454.929 538.575 456.739 538.82C477.801 540.625 501.634 542.061 522.112 536.799C524.49 536.188 526.856 535.485 529.197 534.695C530.972 551.328 532.699 567.969 534.353 584.612C529.493 584.179 524.213 585.962 521.492 590.011C518.771 594.06 519.536 600.397 523.731 602.894C529.315 606.221 536.147 601.62 540.986 597.274C540.948 600.733 539.561 604.044 539.245 607.49C538.93 610.933 540.188 615.012 543.461 616.13C546.271 617.089 549.345 615.426 551.395 613.279C556.676 607.757 557.54 598.535 553.386 592.126C557.01 594.763 562.783 593.012 564.779 588.998C566.773 584.984 565.075 579.696 561.401 577.129C557.726 574.561 552.581 574.612 548.637 576.743C548.095 560.016 547.554 543.289 547.01 526.559C557.519 520.312 566.581 511.893 572.638 501.314C574.022 498.895 575.221 496.381 576.296 493.814C577.759 490.325 578.968 486.723 579.981 483.068C580.517 481.141 581.005 479.202 581.444 477.257C582.013 474.74 582.492 472.211 582.912 469.67C612.899 460.217 641.143 444.339 661.513 420.556C684.697 393.5 696.33 355.315 686.486 321.08Z"/>
</mask>
<path d="M686.486 321.08C678.377 292.882 657.38 270.524 637.188 249.234C633.368 245.204 629.343 240.567 628.007 235.392C627.606 233.83 627.45 232.219 627.617 230.559C627.622 230.476 627.622 230.392 627.633 230.311C628.29 224.829 632.434 220.435 636.771 217.014C637.304 216.591 637.848 216.178 638.398 215.772C639.548 214.912 640.72 214.088 641.908 213.277C646.054 210.454 650.365 207.849 654.449 204.958C656.459 203.538 658.417 202.048 660.268 200.427C667.491 194.112 673.256 184.901 671.895 175.402C670.629 166.55 663.245 159.44 654.826 156.42C646.407 153.4 637.129 153.869 628.32 155.415C626.402 155.752 624.486 156.143 622.584 156.593C614.335 158.543 606.345 161.633 599.456 166.528C593.799 170.55 588.958 175.9 585.838 182.062C584.284 185.127 583.152 188.39 582.576 191.798C581.35 199.015 582.619 206.335 585.264 213.215C586.751 217.084 588.669 220.812 590.835 224.306C592.993 227.781 595.383 231.071 597.934 234.228C602.22 239.535 606.981 244.463 611.948 249.228C626.173 262.871 642.081 275.196 653.317 291.346C676.243 324.286 675.319 371.945 651.138 403.972C641.968 416.116 629.987 425.947 617.016 433.905C607.096 439.988 596.205 445.088 584.82 446.933C584.825 445.195 584.798 443.458 584.742 441.723C584.642 438.765 584.451 435.812 584.173 432.865C583.632 427.081 582.751 421.329 581.536 415.642C580.722 411.83 579.763 408.05 578.659 404.311C574.933 391.706 569.572 379.583 562.699 368.397C582.042 357.347 601.382 346.296 620.725 335.245C621.768 334.652 622.924 334.036 624.101 334.267C625.734 334.59 626.588 336.331 627.433 337.764C629.88 341.899 634.473 344.93 639.274 344.69C644.074 344.451 648.632 340.41 648.689 335.603C648.751 330.253 642.485 326.231 637.547 327.664C640.895 325.87 643.713 323.006 644.812 319.402C646.122 315.121 644.486 309.868 640.518 307.796C637.17 306.045 632.509 307.411 630.658 310.53C632.105 306.656 633.296 302.602 632.512 298.591C631.598 293.927 626.827 289.695 622.315 291.193C620.152 291.909 618.527 293.76 617.474 295.783C615.254 300.064 615.227 305.161 615.954 309.93C616.191 311.473 616.482 313.135 615.779 314.531C615.259 315.557 614.281 316.258 613.338 316.915C593.974 330.455 574.327 343.594 554.44 356.358C549.968 350.504 545.048 344.987 539.682 339.908C558.793 334.502 574.098 318.515 578.176 299.078C582.252 279.641 575.399 259.638 560.07 247.006C563.454 230.737 565.286 214.144 565.528 197.528C553.731 210.039 541.15 222.87 529.35 235.381C526.441 234.403 523.494 233.536 520.517 232.784C516.812 231.847 513.06 231.103 509.285 230.513C506.761 230.12 504.226 229.794 501.683 229.557C496.12 229.04 490.519 228.897 484.934 229.128C482.752 229.22 480.575 229.366 478.401 229.573C474.123 229.977 469.872 230.589 465.661 231.437C462.668 232.043 459.694 232.757 456.752 233.587C444.729 221.623 433.072 209.018 421.049 197.051C420.066 215.548 419.115 232.844 416.504 251.182C399.804 264.377 392.387 288.213 398.654 308.553C404.917 328.895 422.921 344.38 444.153 345.889C437.83 350.399 431.995 355.569 426.717 361.258C410.281 349.863 393.845 338.467 377.406 327.072C376.167 326.212 374.882 325.304 374.16 323.982C373.093 322.026 373.476 319.644 373.459 317.416C373.427 312.828 371.31 308.095 367.376 305.735C363.44 303.375 357.705 304.027 354.992 307.726C351.15 312.96 354.674 320.234 358.198 325.687C352.934 322.74 345.42 321.107 341.565 325.746C338.971 328.866 339.442 333.817 341.985 336.977C344.526 340.14 348.68 341.673 352.732 341.886C348.796 341.35 344.539 342.538 341.832 345.447C339.127 348.354 338.297 353.028 340.299 356.463C343.101 361.277 350.232 361.983 355.127 359.321C360.022 356.66 363.12 351.638 365.695 346.697C381.848 356.94 398.198 366.87 414.721 376.506C406.744 388.551 400.946 402.04 397.794 416.127C397.051 419.457 396.455 422.822 396.013 426.208C395.938 426.787 395.855 427.364 395.79 427.943C395.017 434.697 394.877 441.513 395.318 448.291C395.62 452.943 396.199 457.577 397.051 462.165C398.942 472.37 402.167 482.329 406.612 491.705C407.891 494.404 409.271 497.055 410.75 499.652C414.637 506.47 419.201 512.901 424.403 518.787C427.531 522.325 430.974 525.708 434.702 528.672C434.266 549.378 433.829 570.084 433.395 590.79C425.677 586.983 415.02 592.441 413.592 600.927C413.236 603.039 413.395 605.286 414.368 607.196C416.345 611.097 421.31 612.706 425.645 612.097C429.979 611.488 433.843 609.139 437.566 606.841C434.284 612.382 431.442 620.055 435.936 624.667C439.907 628.74 447.396 626.884 450.699 622.256C454.002 617.627 454.069 611.434 453.188 605.817C457.28 608.559 463.401 607.46 466.432 603.576C469.463 599.691 469.129 593.643 465.831 589.984C462.534 586.326 456.712 585.326 452.291 587.495C452.003 570.889 451.712 554.283 451.426 537.678C453.161 538.179 454.929 538.575 456.739 538.82C477.801 540.625 501.634 542.061 522.112 536.799C524.49 536.188 526.856 535.485 529.197 534.695C530.972 551.328 532.699 567.969 534.353 584.612C529.493 584.179 524.213 585.962 521.492 590.011C518.771 594.06 519.536 600.397 523.731 602.894C529.315 606.221 536.147 601.62 540.986 597.274C540.948 600.733 539.561 604.044 539.245 607.49C538.93 610.933 540.188 615.012 543.461 616.13C546.271 617.089 549.345 615.426 551.395 613.279C556.676 607.757 557.54 598.535 553.386 592.126C557.01 594.763 562.783 593.012 564.779 588.998C566.773 584.984 565.075 579.696 561.401 577.129C557.726 574.561 552.581 574.612 548.637 576.743C548.095 560.016 547.554 543.289 547.01 526.559C557.519 520.312 566.581 511.893 572.638 501.314C574.022 498.895 575.221 496.381 576.296 493.814C577.759 490.325 578.968 486.723 579.981 483.068C580.517 481.141 581.005 479.202 581.444 477.257C582.013 474.74 582.492 472.211 582.912 469.67C612.899 460.217 641.143 444.339 661.513 420.556C684.697 393.5 696.33 355.315 686.486 321.08Z" fill="#F39323" stroke="black" stroke-width="4" mask="url(#path-21-inside-5)"/>
<path d="M509.77 260.435C513.873 251.389 517.4 242.079 520.323 232.585C516.618 231.647 512.866 230.904 509.091 230.314C509.091 231.623 509.197 232.946 509.302 234.244C509.997 242.957 510.15 251.707 509.77 260.435Z" fill="#4E4D4D"/>
<path d="M478.205 229.376C473.929 229.78 469.676 230.392 465.465 231.241C465.818 239.395 467.235 247.504 469.7 255.287C472.537 246.65 475.371 238.013 478.205 229.376Z" fill="#4E4D4D"/>
<path d="M501.489 229.357C495.923 228.84 490.322 228.697 484.74 228.929C486.508 242.569 488.455 256.187 490.597 269.776C494.485 256.376 498.105 242.898 501.489 229.357Z" fill="#4E4D4D"/>
<path d="M526.896 404.497C519.178 396.307 508.628 390.378 497.383 389.904C471.34 389.632 458.781 402.121 449.269 415.542C431.892 440.055 430.028 474.223 443.223 501.217C447.72 510.42 454.018 519.032 462.698 524.464C472.065 530.32 483.499 532.045 494.539 531.727C502.074 531.508 509.655 530.38 516.629 527.516C533.292 520.67 544.838 504.237 548.742 486.651C552.643 469.064 549.677 450.527 543.564 433.582C539.752 422.991 534.615 412.687 526.896 404.497ZM496.489 501.966C496.19 503.24 495.085 504.77 493.919 504.178C493.291 503.857 493.089 503.068 492.992 502.37C492.51 498.889 492.348 496.306 493.679 493.054C494.102 492.068 494.552 491.974 495.164 492.27C495.778 492.564 496.063 493.264 496.257 493.916C497.028 496.519 497.111 499.323 496.489 501.966Z" fill="#FBC063"/>
<path d="M479.87 300.549C485.295 304.299 489.067 309.701 491.546 315.813C492.984 310.202 495.732 304.711 500.083 300.977C502.467 298.933 505.487 296.996 505.913 293.884C506.09 292.928 505.544 292.284 504.423 293.154C495.861 298.192 484.908 298.917 475.756 295.051C475.457 297.448 477.884 299.175 479.87 300.549Z" fill="#4E4D4D"/>
<path d="M425.011 361.23C421.088 365.54 417.48 370.136 414.221 374.972C397.985 365.49 381.917 355.724 366.04 345.656L365.12 345.073L364.617 346.039C362.046 350.976 359.065 355.743 354.46 358.246C352.212 359.469 349.431 359.923 346.899 359.512C344.372 359.102 342.188 357.851 340.972 355.763L340.972 355.763C339.223 352.763 339.923 348.564 342.375 345.932L342.376 345.931C344.545 343.598 347.87 342.452 351.159 342.572C351.604 342.626 352.049 342.665 352.491 342.688L352.678 340.698C352.23 340.637 351.777 340.597 351.322 340.578C347.898 340.149 344.629 338.711 342.573 336.154C340.26 333.277 339.92 328.865 342.143 326.189L425.011 361.23ZM425.011 361.23C417.079 355.73 409.185 350.257 401.292 344.784C393.092 339.099 384.892 333.413 376.648 327.697L425.011 361.23ZM373.093 324.263C373.942 325.825 375.433 326.856 376.64 327.691L376.648 327.697L373.093 324.263C373.093 324.263 373.093 324.263 373.093 324.263ZM373.093 324.263C372.453 323.09 372.269 321.828 372.227 320.64C372.205 320.045 372.219 319.449 372.236 318.88C372.239 318.795 372.242 318.71 372.244 318.626C372.259 318.142 372.274 317.681 372.271 317.226M373.093 324.263L372.271 317.226M372.271 317.226C372.237 312.898 370.238 308.535 366.671 306.396L366.671 306.396C363.094 304.25 357.959 304.914 355.607 308.121L355.607 308.121C353.932 310.403 353.811 313.179 354.609 316.17C355.41 319.171 357.105 322.248 358.849 324.947L357.521 326.363C354.981 324.94 351.931 323.857 349.099 323.673C346.276 323.489 343.799 324.197 342.143 326.188L372.271 317.226Z" fill="#FBC063" stroke="black" stroke-width="2"/>
<path d="M637.353 327.465C636.679 327.659 636.03 327.952 635.424 328.362C636.084 328.103 636.725 327.799 637.353 327.465Z" fill="#FBC063"/>
<path d="M629.3 309.649C628.913 310.353 628.619 311.069 628.444 311.856C628.059 313.577 630.421 314.165 631.044 312.572C631.286 311.947 631.528 311.32 631.766 310.689C632.38 309.065 629.775 308.364 629.168 309.973C628.931 310.6 628.689 311.228 628.444 311.856C629.311 312.093 630.176 312.333 631.044 312.572C631.17 312.007 631.348 311.519 631.628 311.01C632.469 309.49 630.144 308.13 629.3 309.649Z" fill="#1B1B1B"/>
<path d="M618.165 296.042C619.151 294.142 620.61 292.545 622.431 291.94C624.288 291.324 626.266 291.859 627.951 293.169C629.642 294.482 630.925 296.498 631.334 298.581C632.057 302.269 630.985 306.062 629.555 309.898C629.188 310.535 628.898 311.245 628.756 312.033L630.671 312.574C630.903 311.979 631.136 311.376 631.365 310.767C632.147 309.5 633.52 308.544 635.104 308.097C636.716 307.642 638.449 307.742 639.861 308.48L639.861 308.48C643.314 310.284 644.859 314.99 643.662 318.907C642.666 322.166 640.11 324.826 636.97 326.533C636.239 326.754 635.53 327.081 634.864 327.531L635.79 329.29C636.452 329.029 637.099 328.728 637.728 328.395C639.834 327.822 642.283 328.373 644.232 329.712C646.207 331.069 647.52 333.128 647.493 335.389L647.493 335.39C647.446 339.578 643.395 343.271 639.027 343.489C634.674 343.707 630.397 340.94 628.098 337.053C628.026 336.932 627.952 336.803 627.874 336.669C627.528 336.07 627.122 335.367 626.647 334.773C626.049 334.026 625.24 333.31 624.099 333.084L624.097 333.084C622.501 332.77 621.021 333.613 620.042 334.171L620.036 334.174L620.035 334.175L615.58 314.329M618.165 296.042L617.277 295.581L618.165 296.042ZM618.165 296.042C616.087 300.044 616.031 304.887 616.746 309.577L616.746 309.577C616.756 309.642 616.766 309.709 616.777 309.775C616.884 310.477 617.007 311.276 617.021 312.065C617.037 312.942 616.925 313.885 616.473 314.779M616.473 314.779C616.473 314.78 616.472 314.78 616.472 314.78L615.58 314.329M616.473 314.779C616.473 314.779 616.473 314.779 616.473 314.779L615.58 314.329M616.473 314.779C615.83 316.054 614.643 316.884 613.743 317.513L613.715 317.533L613.142 316.713C614.082 316.056 615.063 315.355 615.58 314.329M555.693 356.413C555.492 356.146 555.29 355.88 555.087 355.614C554.806 355.795 554.524 355.975 554.243 356.156C554.446 356.422 554.648 356.688 554.849 356.955C555.13 356.775 555.412 356.594 555.693 356.413ZM644.619 319.2C645.925 314.922 644.29 309.666 640.324 307.594L639.414 326.169C641.826 324.411 643.752 322.034 644.619 319.2ZM562.505 368.193L563.358 367.67C563.189 367.394 563.019 367.12 562.848 366.846C562.568 367.005 562.289 367.165 562.009 367.324L562.505 368.193Z" fill="#FBC063" stroke="black" stroke-width="2"/>
<path d="M432.765 591.487L434.174 592.182L434.207 590.612L435.474 530.472C439.989 533.839 444.925 536.577 450.253 538.226C450.532 554.439 450.814 570.651 451.095 586.863L451.103 587.313L451.13 588.887L452.543 588.194C456.581 586.213 461.915 587.143 464.9 590.455C467.887 593.768 468.174 599.278 465.458 602.761C462.733 606.25 457.195 607.225 453.556 604.787L451.658 603.514L452.012 605.773C452.883 611.326 452.762 617.18 449.696 621.476C448.207 623.563 445.743 625.054 443.191 625.543C440.645 626.031 438.155 625.504 436.466 623.77L435.75 624.468L436.466 623.77C434.526 621.779 434.107 619.085 434.634 616.076C435.164 613.057 436.628 609.873 438.24 607.151L436.855 605.79C433.098 608.107 429.41 610.332 425.317 610.907L425.317 610.907C421.236 611.481 416.789 609.929 415.071 606.544L415.071 606.544C414.223 604.875 414.061 602.858 414.392 600.894L414.392 600.894C415.043 597.024 417.817 593.776 421.403 591.94C424.99 590.103 429.245 589.752 432.765 591.487ZM414.179 606.997C416.159 610.898 421.124 612.506 425.456 611.897L414.179 606.997Z" fill="#FBC063" stroke="black" stroke-width="2"/>
<path d="M534.076 585.409L535.28 585.517L535.16 584.314C533.526 567.93 531.83 551.554 530.082 535.184C535.541 533.293 540.858 530.92 545.876 528.066C546.402 544.238 546.925 560.407 547.449 576.576L547.501 578.193L548.924 577.424C552.587 575.443 557.323 575.432 560.64 577.749C563.962 580.072 565.439 584.842 563.693 588.354C562.838 590.072 561.145 591.35 559.229 591.895C557.313 592.44 555.298 592.219 553.787 591.118L552.359 592.471C556.261 598.491 555.444 607.201 550.484 612.389L551.207 613.08L550.484 612.389C548.518 614.445 545.84 615.75 543.593 614.984C542.298 614.541 541.344 613.497 540.737 612.088C540.128 610.673 539.907 608.963 540.05 607.382C540.184 605.929 540.517 604.5 540.869 602.995C540.913 602.802 540.959 602.608 541.004 602.413C541.395 600.721 541.774 598.935 541.795 597.086L541.819 594.811L540.126 596.331C537.736 598.478 534.916 600.628 532.058 601.841C529.208 603.051 526.469 603.274 524.054 601.836L524.054 601.835C522.265 600.77 521.156 598.855 520.815 596.68C520.474 594.502 520.923 592.165 522.131 590.37C524.595 586.706 529.466 584.998 534.076 585.409Z" fill="#FBC063" stroke="black" stroke-width="2"/>
<path d="M495.164 492.27C494.552 491.974 494.102 492.068 493.679 493.054C492.348 496.306 492.51 498.89 492.992 502.37C493.089 503.068 493.289 503.857 493.919 504.178C495.085 504.77 496.19 503.24 496.489 501.966C497.109 499.323 497.028 496.519 496.257 493.916C496.063 493.264 495.778 492.564 495.164 492.27Z" fill="#4E4D4D"/>
<path d="M618.743 241.47C621.472 239.013 624.527 236.855 627.808 235.193C627.407 233.63 627.25 232.019 627.415 230.36C617.433 228.951 607.078 230.244 597.732 234.026C602.021 239.333 606.779 244.261 611.749 249.026C613.888 246.332 616.183 243.773 618.743 241.47Z" fill="#4E4D4D"/>
<path d="M659.408 199.474L659.407 199.475C657.946 200.755 656.412 201.955 654.833 203.108C649.748 185.142 639.134 168.709 624.643 156.91C625.855 156.651 627.073 156.415 628.293 156.201L628.293 156.201C637.04 154.666 646.113 154.229 654.286 157.162L654.287 157.162C662.463 160.092 669.504 166.956 670.706 175.345C671.996 184.354 666.523 193.256 659.408 199.474Z" fill="#4E4D4D" stroke="black" stroke-width="2"/>
<path d="M619.683 206.243C626.547 207.609 632.822 211.033 638.196 215.57C639.346 214.713 640.518 213.886 641.709 213.078C636.569 204.462 629.422 197.038 620.938 191.685C610.461 185.071 598.02 181.644 585.639 181.862C584.087 184.928 582.956 188.19 582.376 191.598C581.153 198.816 582.419 206.135 585.065 213.016C596.091 207.711 607.899 203.897 619.683 206.243Z" fill="#4E4D4D"/>
<path d="M538.321 277.467C538.728 278.402 540.099 277.594 539.693 276.664C537.19 270.956 529.547 272.456 524.803 273.8C519.59 275.279 514.655 278.062 511.934 282.901C511.43 283.792 512.804 284.595 513.305 283.704C515.624 279.584 519.69 277.103 524.094 275.675C528.305 274.31 536.01 272.2 538.321 277.467Z" fill="#4E4D4D"/>
<path d="M457.315 279.143C451.944 278.186 446.432 279.016 441.634 281.626C440.737 282.114 441.537 283.488 442.436 282.998C446.841 280.6 451.957 279.797 456.895 280.673C461.211 281.435 466.629 283.453 468.471 287.715C468.875 288.65 470.244 287.842 469.845 286.912C467.838 282.276 462.016 279.98 457.315 279.143Z" fill="#4E4D4D"/>
<path d="M505.891 319.108C505.18 322.168 502.47 324.714 499.213 324.695C495.872 324.677 493.208 321.732 492.494 318.664C492.37 318.138 491.887 318.014 491.494 318.154C491.117 318.063 490.699 318.208 490.597 318.696C489.078 325.902 479.498 327.395 475.718 321.15C475.19 320.277 473.816 321.075 474.347 321.953C478.471 328.771 488.674 327.891 491.58 320.875C492.946 323.863 495.837 326.279 499.213 326.285C503.154 326.29 506.554 323.284 507.421 319.531C507.656 318.537 506.123 318.111 505.891 319.108Z" fill="#4E4D4D"/>
<path d="M586.617 287.101C569.647 290.212 552.597 292.855 535.482 295.021C534.482 295.148 534.469 296.737 535.482 296.61C552.737 294.426 569.933 291.769 587.042 288.634C588.045 288.448 587.619 286.917 586.617 287.101Z" fill="#4E4D4D"/>
<path d="M591.641 302.675C574.671 303.125 557.688 302.373 540.824 300.431C539.811 300.315 539.819 301.904 540.824 302.02C557.691 303.962 574.671 304.714 591.641 304.264C592.662 304.237 592.667 302.648 591.641 302.675Z" fill="#4E4D4D"/>
<path d="M589.728 319.733C575.226 317.567 560.932 314.232 546.966 309.763C545.988 309.45 545.571 310.983 546.543 311.293C560.509 315.765 574.804 319.097 589.305 321.263C590.302 321.414 590.739 319.881 589.728 319.733Z" fill="#4E4D4D"/>
<path d="M443.018 301.333C422.789 297.33 402.439 293.976 381.994 291.263C380.984 291.131 380.994 292.72 381.994 292.852C402.296 295.546 422.506 298.89 442.598 302.866C443.592 303.063 444.021 301.53 443.018 301.333Z" fill="#4E4D4D"/>
<path d="M439.161 307.551C422.673 310.735 405.952 312.656 389.311 314.846C388.314 314.978 388.301 316.568 389.311 316.436C406.092 314.224 422.956 312.29 439.584 309.084C440.586 308.887 440.16 307.357 439.161 307.551Z" fill="#4E4D4D"/>
<path d="M442.022 316.298C426.814 322.193 411.17 326.872 395.227 330.296C394.227 330.512 394.648 332.042 395.647 331.829C411.593 328.405 427.24 323.726 442.445 317.831C443.387 317.465 442.978 315.926 442.022 316.298Z" fill="#4E4D4D"/>
<path d="M397.608 415.93C396.865 419.26 396.267 422.625 395.828 426.011L425.769 422.892L397.608 415.93Z" fill="#4E4D4D"/>
<path d="M395.13 448.094C395.432 452.747 396.014 457.38 396.865 461.968C405.098 455.648 417.827 445.133 417.827 445.133L395.13 448.094Z" fill="#4E4D4D"/>
<path d="M406.426 491.508C407.706 494.207 409.082 496.858 410.564 499.455L421.801 482.068L406.426 491.508Z" fill="#4E4D4D"/>
<path d="M550.075 412.566C550.075 412.566 568.869 414.497 581.339 415.44C580.528 411.628 579.566 407.848 578.462 404.109L550.075 412.566Z" fill="#4E4D4D"/>
<path d="M584.545 441.521C584.448 438.565 584.254 435.61 583.977 432.663L559.211 436.79L584.545 441.521Z" fill="#4E4D4D"/>
<path d="M576.11 493.617C577.57 490.129 578.783 486.529 579.795 482.871C572.244 480.858 561.196 478.097 561.196 478.097L576.11 493.617Z" fill="#4E4D4D"/>
<ellipse cx="154" cy="500" rx="154" ry="79" fill="#666363" fill-opacity="0.2"/>
<path d="M218.63 133.107L218.634 133.104C237.449 121.589 256.315 120.68 270.814 125.612C285.354 130.559 295.397 141.321 296.864 153.105C298.177 164.798 289.854 175.622 277.883 175.622H277.872L277.86 175.623C274.802 175.692 272.04 174.481 269.436 172.592C266.82 170.694 264.444 168.175 262.145 165.722L262.139 165.716C255.708 158.978 249.823 154.849 244.226 152.721C238.61 150.585 233.343 150.487 228.21 151.711C223.102 152.929 218.146 155.451 213.121 158.52C210.211 160.297 207.219 162.297 204.148 164.349C201.954 165.815 199.719 167.308 197.445 168.767L196.205 169.562L197.402 170.421C217.98 185.184 222.601 212.874 221.382 247.334C221.229 251.296 221.077 254.954 220.925 258.46L220.905 258.919L221.241 259.234C228.011 265.562 232.055 274.728 232.055 288.541C232.055 303.834 229.404 315.086 224.786 323.372C220.179 331.639 213.573 337.027 205.514 340.534L204.849 340.824L204.918 341.546C205.224 344.754 205.523 347.91 205.523 351.21V352.754L206.932 352.122C207.204 352 207.476 351.878 207.749 351.756C211.949 349.872 216.158 347.985 217.818 347.431L217.831 347.427L217.844 347.422C221.093 346.237 223.775 345.269 226.051 344.613C228.333 343.956 230.123 343.639 231.598 343.708C233.033 343.775 234.176 344.206 235.202 345.094C236.257 346.008 237.242 347.453 238.244 349.642C239.587 352.591 240.178 354.954 239.928 357.083C239.682 359.179 238.601 361.208 236.253 363.446C233.888 365.701 230.3 368.11 225.161 370.952C220.032 373.789 213.415 377.027 205.032 380.952L204.49 381.206L204.458 381.803C203.392 401.286 202.023 414.983 198.212 445.315C197.225 452.908 195.652 457.354 193.234 459.928C190.871 462.444 187.523 463.348 182.432 463.348C179.391 463.348 177.216 462.843 175.64 462.026C174.082 461.218 173.05 460.074 172.334 458.675C171.608 457.255 171.201 455.557 170.944 453.649C170.744 452.172 170.639 450.626 170.531 449.023C170.499 448.547 170.466 448.065 170.431 447.579C170.127 443.43 169.622 438.962 167.015 435.564C164.351 432.092 159.689 429.955 151.631 429.955C143.538 429.955 138.856 432.091 136.184 435.563C133.569 438.962 133.069 443.432 132.775 447.581C132.74 448.078 132.708 448.57 132.676 449.056C132.572 450.648 132.472 452.184 132.279 453.652C132.027 455.56 131.626 457.258 130.906 458.678C130.196 460.076 129.169 461.219 127.616 462.026C126.044 462.843 123.872 463.348 120.831 463.348C115.739 463.348 112.392 462.444 110.029 459.928C107.611 457.353 106.037 452.907 105.05 445.312L105.05 445.31C101.09 415.309 100.33 401.314 99.7211 381.826L99.702 381.214L99.1472 380.953C90.8026 377.028 84.2241 373.79 79.1308 370.956C74.0279 368.116 70.4731 365.712 68.1374 363.468C65.818 361.24 64.7597 359.227 64.5288 357.153C64.2944 355.048 64.8921 352.715 66.2332 349.807C67.2704 347.66 68.2806 346.242 69.354 345.344C70.4005 344.467 71.5582 344.042 72.9993 343.975C74.4773 343.906 76.2603 344.215 78.5231 344.853C80.7748 345.488 83.4202 346.426 86.62 347.568C88.4647 348.337 93.1599 350.307 97.5501 352.275L98.9592 352.906V351.362C98.9592 348.038 99.1103 344.869 99.4117 341.855L99.486 341.112L98.7939 340.83C90.7395 337.548 84.1443 332.39 79.5433 324.171C74.9286 315.928 72.2756 304.527 72.2756 288.694C72.2756 275.041 76.4671 265.714 83.0973 259.379L83.4065 259.083V258.656C83.4065 255.39 83.2751 251.994 83.135 248.371C83.1236 248.079 83.1123 247.785 83.1009 247.49C82.033 215.14 85.2847 188.617 102.588 173.253L103.276 172.642L102.724 171.906C100.676 169.175 98.7498 166.438 96.8724 163.759C96.7526 163.589 96.633 163.418 96.5136 163.247C94.7644 160.751 93.052 158.307 91.3309 155.992C87.6578 151.05 83.8937 146.622 79.5113 143.397C75.1059 140.154 70.0835 138.133 63.9295 137.992C57.7989 137.851 50.6178 139.578 41.8784 143.698L41.8784 143.698L41.8668 143.703C38.8758 145.16 35.7598 146.678 32.6457 147.525C29.5445 148.37 26.555 148.517 23.7887 147.341L23.782 147.338L23.7752 147.336C12.8077 142.862 8.96936 129.679 14.52 119.306C20.1575 108.838 33.4514 102.422 48.8594 103.041C64.2209 103.658 81.5597 111.284 95.0312 128.743C103.691 140.068 109.063 151.74 113.254 160.848C113.82 162.078 114.365 163.261 114.893 164.39L115.3 165.261L116.186 164.889C123.686 161.739 132.569 159.775 143.467 159.018L145.162 158.9L144.236 157.475C143.249 155.956 142.26 154.398 141.269 152.834L141.266 152.83C140.713 151.958 140.16 151.085 139.605 150.217C143.185 151.228 146.394 153.194 148.911 155.95L150.407 157.589L150.643 155.382C150.996 152.093 150.818 148.776 150.645 145.554C150.615 144.998 150.586 144.446 150.559 143.896C151.305 144.348 151.989 145.114 152.611 146.12C153.535 147.612 154.191 149.421 154.642 150.85L154.647 150.866L154.653 150.882C154.871 151.501 155.078 152.142 155.288 152.793C155.909 154.723 156.558 156.738 157.635 158.535L157.91 158.992L158.443 159.019C167.525 159.473 175.513 160.834 182.268 163.086L182.815 163.268L183.247 162.886C185.317 161.055 187.568 158.86 190.051 156.438C197.233 149.434 206.354 140.54 218.63 133.107Z" fill="#835E42" stroke="black" stroke-width="2"/>
<path d="M207.629 339.942C192.542 347.289 172.068 347.314 150.426 347.008C149.645 346.996 148.865 346.985 148.088 346.974C138.46 346.839 129.171 346.708 120.57 345.831C111.277 344.884 102.867 343.072 95.7799 339.491C88.7169 335.922 82.9419 330.584 78.9176 322.517C74.8826 314.428 72.5806 303.541 72.5806 288.846C72.5806 277.915 75.1701 269.816 79.5715 263.784C83.9755 257.748 90.2622 253.688 97.8219 250.962C113.004 245.488 133.048 245.475 152.546 245.475C171.968 245.475 191.974 245.488 207.137 250.962C214.687 253.688 220.969 257.748 225.371 263.783C229.77 269.816 232.36 277.915 232.36 288.846C232.36 303.531 229.889 314.488 225.582 322.669C221.285 330.831 215.127 336.291 207.629 339.942Z" fill="#B58A6A" stroke="black" stroke-width="2"/>
<path d="M124.338 249.354C122.966 264.45 137.146 289.151 151.631 289.456C166.574 289.761 181.822 264.907 180.45 249.354C179.23 236.089 165.812 238.376 152.394 238.376C138.976 238.528 125.558 236.241 124.338 249.354Z" fill="#100B0B"/>
<path d="M121.746 198.427C115.189 198.427 109.852 202.239 109.852 217.182C109.852 231.514 115.189 235.936 121.746 235.936C128.302 235.936 133.639 232.124 133.639 217.182C133.639 200.866 128.302 198.427 121.746 198.427Z" fill="white"/>
<path d="M121.746 213.98C118.391 213.98 115.799 215.962 115.799 223.433C115.799 230.6 118.391 232.887 121.746 232.887C125.1 232.887 127.692 230.905 127.692 223.433C127.692 215.199 124.948 213.98 121.746 213.98Z" fill="#100B0B"/>
<path d="M181.67 198.427C188.226 198.427 193.563 202.239 193.563 217.182C193.563 231.514 188.226 235.936 181.67 235.936C175.113 235.936 169.776 232.124 169.776 217.182C169.776 200.866 175.113 198.427 181.67 198.427Z" fill="white"/>
<path d="M181.67 213.98C185.024 213.98 187.616 215.962 187.616 223.433C187.616 230.6 185.024 232.887 181.67 232.887C178.315 232.887 175.723 230.905 175.723 223.433C175.723 215.199 178.468 213.98 181.67 213.98Z" fill="#100B0B"/>
<path d="M200.272 311.718C198.29 310.803 196.46 309.736 194.783 308.516C194.478 308.058 192.8 307.296 190.208 304.094C188.836 302.417 186.549 304.856 187.921 306.381C188.836 307.601 189.903 308.668 190.971 309.583C181.212 321.781 166.879 327.88 152.546 327.88C138.213 327.88 123.88 321.781 114.122 309.583C115.189 308.668 116.257 307.448 117.171 306.381C118.544 304.704 116.104 302.417 114.884 304.094C112.292 307.296 110.767 308.058 110.31 308.516C108.633 309.736 106.803 310.803 104.821 311.718C102.839 312.633 104.516 315.377 106.498 314.615C108.328 313.852 110.005 312.938 111.53 311.718C122.356 324.983 137.603 331.082 152.546 331.082C167.642 331.235 182.737 324.983 193.563 311.718C195.088 312.785 196.917 313.852 198.595 314.615C200.424 315.377 202.102 312.633 200.272 311.718Z" fill="#100B0B"/>
<path d="M128.302 399.24C128.302 416.928 140.043 420.892 152.394 421.044C165.202 421.197 176.485 416.928 176.485 399.24C176.485 385.975 163.982 381.248 152.394 381.248C140.805 381.248 128.302 385.975 128.302 399.24Z" fill="#B58A6A"/>
</svg>
